<svg width="1660" height="457" viewBox="0 0 1660 457" fill="none" xmlns="http://www.w3.org/2000/svg">
<g clip-path="url(#clip0_135_117)">
<rect width="1660" height="457" fill="#F5F6F6"/>
<path d="M720.608 152.6H751.56V154.72C744.493 160.232 735.024 180.796 723.152 216.412C708.312 263.193 699.549 291.46 696.864 301.212L671 303.756C671 299.092 666.477 283.051 657.432 255.632C636.797 192.739 623.3 159.101 616.94 154.72V152.6H651.496V156.204C651.496 163.695 654.393 176.768 660.188 195.424L687.96 285.1C700.539 241.711 707.393 217.896 708.524 213.656C709.655 209.275 710.927 204.611 712.34 199.664C715.873 187.227 718.064 178.605 718.912 173.8C719.76 168.853 720.325 162.988 720.608 156.204V152.6ZM814.663 258.6C808.868 256.48 802.155 255.42 794.523 255.42C787.032 255.42 781.591 256.621 778.199 259.024C776.079 262.275 775.019 266.656 775.019 272.168C775.019 277.539 776.503 281.779 779.471 284.888C782.439 287.997 786.114 289.552 790.495 289.552C795.018 289.552 799.611 288.421 804.275 286.16C808.939 283.757 812.402 281.213 814.663 278.528V258.6ZM818.055 289.128C809.434 298.597 799.682 303.332 788.799 303.332C778.058 303.332 769.578 301 763.359 296.336C757.282 291.672 754.243 284.181 754.243 273.864C754.243 263.405 757.847 255.915 765.055 251.392C772.404 246.869 782.722 244.608 796.007 244.608L814.663 245.244V233.16C814.663 225.669 812.826 219.592 809.151 214.928C805.476 210.264 799.894 207.932 792.403 207.932C786.891 208.073 778.058 213.373 765.903 223.832C761.804 218.603 758.907 211.819 757.211 203.48C771.203 198.957 784.064 196.696 795.795 196.696C807.526 196.696 816.924 199.735 823.991 205.812C831.058 211.889 834.591 220.511 834.591 231.676V267.292C834.732 273.652 835.722 279.588 837.559 285.1C839.538 290.471 842.082 294.216 845.191 296.336L845.615 298.456L822.931 303.968C821.094 299.445 819.468 294.499 818.055 289.128ZM936.755 209.628L880.363 288.492C903.542 288.492 921.562 286.443 934.423 282.344L936.755 283.404L930.819 301H859.799L854.711 290.824L911.315 211.96C896.475 211.96 886.017 212.384 879.939 213.232C873.862 213.939 868.35 215.493 863.403 217.896L861.071 216.412L865.311 198.604L931.455 199.24L936.755 209.628ZM998.401 303.332C983.561 303.332 971.972 298.739 963.633 289.552C955.294 280.365 951.125 268.281 951.125 253.3C951.125 238.177 955.789 224.963 965.117 213.656C974.445 202.349 986.034 196.696 999.885 196.696C1025.18 196.696 1037.83 212.313 1037.83 243.548L1029.99 251.18H973.597C973.597 263.052 976.141 271.956 981.229 277.892C986.317 283.828 993.172 286.796 1001.79 286.796C1005.18 286.796 1009.99 285.807 1016.21 283.828C1022.43 281.708 1027.94 279.235 1032.74 276.408L1038.04 284.464C1035.36 287.149 1029.49 290.965 1020.45 295.912C1011.54 300.859 1004.2 303.332 998.401 303.332ZM996.069 207.296C990.133 207.296 985.54 208.639 982.289 211.324C979.604 214.999 977.484 219.663 975.929 225.316C974.374 230.969 973.597 235.916 973.597 240.156L1017.06 238.46C1017.06 217.684 1010.06 207.296 996.069 207.296ZM1124.78 196.696C1134.96 196.696 1142.8 199.947 1148.31 206.448C1153.97 212.949 1156.79 222.277 1156.79 234.432V264.96C1156.79 278.387 1158.91 289.905 1163.15 299.516V301H1133.26V299.516C1135.67 292.449 1136.87 283.051 1136.87 271.32V238.884C1136.87 230.687 1135.59 224.539 1133.05 220.44C1130.65 216.2 1125.7 214.08 1118.21 214.08C1110.72 214.08 1101.11 217.684 1089.38 224.892V264.96C1089.38 278.669 1091.43 290.188 1095.53 299.516V301H1065.85V299.516C1068.25 292.449 1069.45 283.051 1069.45 271.32V235.28C1069.45 229.203 1068.18 223.267 1065.63 217.472C1063.23 211.536 1060.41 207.579 1057.15 205.6L1056.94 203.056L1084.71 196.484L1085.99 198.604C1087.12 203.833 1087.97 209.133 1088.53 214.504C1093.76 210.405 1097.79 207.367 1100.61 205.388C1103.58 203.409 1107.33 201.501 1111.85 199.664C1116.37 197.685 1120.68 196.696 1124.78 196.696Z" fill="black"/>
<rect x="-63.4103" y="351.211" width="609" height="400" rx="32.5" transform="rotate(-15 -63.4103 351.211)" stroke="black" stroke-width="3"/>
<path fill-rule="evenodd" clip-rule="evenodd" d="M-3.7826 344.486C6.44298 342.596 13.0595 344.549 22.0124 352.099C22.4744 352.488 23.9797 353.753 25.3583 354.91C26.7365 356.065 28.692 357.823 29.703 358.814C30.714 359.805 34.8105 363.655 38.8066 367.372C42.8043 371.088 46.6472 374.666 47.3485 375.323C48.0497 375.98 49.2842 377.131 50.0929 377.88C54.0113 381.517 61.6582 390.141 61.9588 391.263C62.0063 391.44 62.615 392.271 63.3099 393.108C64.5595 394.612 68.843 401.937 70.2421 404.963C70.6397 405.823 71.2071 406.698 71.5055 406.909C71.8028 407.122 71.9904 407.482 71.9212 407.712C71.8516 407.94 72.3387 409.054 73.0027 410.184C73.6667 411.314 74.5925 413.025 75.0619 413.986C75.5299 414.947 76.9834 417.812 78.2908 420.354C83.8418 431.154 83.6255 437.111 77.4686 442.877C75.7866 444.452 71.4502 448.931 70.9857 449.571C65.3076 457.415 56.2298 462.197 43.1496 464.235C36.2888 465.303 22.3885 467.192 21.1881 467.219C19.5578 467.256 15.3726 467.731 11.8001 468.284C10.0584 468.554 8.32604 468.736 7.95032 468.688C7.57502 468.641 5.9284 468.771 4.29123 468.98C-1.16218 469.674 -3.42791 469.682 -7.56946 469.028C-8.57964 468.868 -10.4385 468.578 -11.6988 468.381C-14.0324 468.019 -17.2352 466.546 -17.4625 465.729C-17.5317 465.482 -18.3455 464.665 -19.2726 463.913C-20.1993 463.163 -21.0984 462.039 -21.2692 461.42C-21.442 460.8 -22.1316 459.624 -22.8048 458.805C-25.2237 455.868 -30.6704 439.931 -34.9471 423.271C-35.6718 420.449 -36.348 417.864 -36.4494 417.529C-50.0184 372.335 -50.6943 361.342 -40.2957 355.096C-36.641 352.902 -14.4884 346.463 -3.7826 344.486ZM258.64 274.383C277.668 270.323 279.639 271.338 276.739 283.693C275.144 290.489 272.173 294.685 259.196 308.461C255.991 311.863 252.744 315.176 250.734 317.087C249.387 318.372 246.355 321.464 244.002 323.958C240.514 327.651 229.883 338.417 225.151 343.047C224.576 343.61 221.316 346.952 217.907 350.475C214.498 353.998 211.066 357.441 210.282 358.126C209.498 358.811 208.623 359.604 208.337 359.891C206.471 361.757 200.656 367.747 199.379 369.121C197.092 371.579 195.302 373.395 191.704 376.909C185.619 382.854 184.633 383.836 184.309 384.275C184.133 384.518 182.72 385.892 181.171 387.332C179.623 388.771 177.508 390.74 176.473 391.706C170.917 396.893 169.226 395.314 158.152 374.603C157.079 372.598 155.257 369.234 154.102 367.13C147.973 355.961 145.982 348.63 144.098 330.305C142.041 310.273 143.877 307.386 163.3 300.125C172.157 296.812 242.402 277.846 258.64 274.383ZM360.185 247.181C375.406 244.148 381.053 245.344 388.512 253.183C390.237 254.994 394.857 261.583 400.042 269.627C402.565 273.538 405.008 277.327 405.474 278.047C406.376 279.44 406.842 280.244 408.943 284.037C413.685 292.596 415.397 302.269 414.044 312.842C413.948 313.592 413.788 315.214 413.688 316.448C413.511 318.632 412.078 328.011 410.854 334.985C410.521 336.885 410.012 339.787 409.724 341.433C409.434 343.08 408.79 346.674 408.293 349.422C407.795 352.17 407.408 354.491 407.432 354.584C407.457 354.675 406.937 357.614 406.278 361.114C405.62 364.613 404.899 368.514 404.676 369.781C400.798 391.837 398.154 401.507 395.775 402.341C395.034 402.599 391.621 402.06 390.045 401.435C387.746 400.523 380.05 392.536 373.342 384.102C372.155 382.609 369.989 379.968 368.529 378.233C367.068 376.497 365.852 375.001 365.827 374.907C365.802 374.814 364.944 373.723 363.923 372.482C359.184 366.73 357.208 364.259 356.292 362.934C355.746 362.147 354.132 360.136 352.704 358.468C351.278 356.798 349.149 354.208 347.975 352.712C346.8 351.215 345.121 349.124 344.246 348.063C342.545 346.002 339.572 342.256 335.435 336.965C334.026 335.162 331.939 332.561 330.797 331.184C329.654 329.807 328.154 327.918 327.462 326.987C326.77 326.057 325.62 324.587 324.904 323.722C320.722 318.669 315.577 312.099 315.46 311.664C315.386 311.384 315.105 311.028 314.837 310.87C314.568 310.714 313.377 309.265 312.192 307.651C311.006 306.037 309.783 304.391 309.475 303.99C292.108 281.412 290.411 272.166 302.342 265.124C310.712 260.184 339.057 251.39 360.185 247.181ZM478.691 215.178C510.156 207.484 518.679 210.729 526.438 233.345C527.159 235.445 530.226 246.474 533.256 257.855C548.529 315.219 548.522 317.406 533.068 322.932C526.787 325.179 511.305 329.037 509.16 328.889C508.297 328.83 506.59 328.732 505.364 328.672C504.139 328.612 502.915 328.473 502.644 328.363C502.372 328.253 500.882 327.859 499.331 327.487C493.661 326.126 482.719 321.983 464.584 314.332C460.615 312.657 459.47 312.175 453.075 309.483C425.81 298.006 418.407 292.948 409.614 279.791C408.519 278.152 407.372 276.485 407.064 276.085C406.027 274.737 395.234 257.766 394.251 255.94C388.756 245.719 391.432 241.046 406.109 235.238C409.679 233.827 457.443 220.274 465.89 218.279C467.824 217.822 473.585 216.425 478.691 215.178ZM122.579 311.439C137.516 309.719 139.936 311.945 141.843 329.153C143.776 346.606 141.869 352.598 133.004 356.913C132.362 357.224 130.623 358.115 129.138 358.893C126.153 360.453 119.036 363.629 113.23 365.987C111.158 366.83 107.776 368.239 105.715 369.122C103.653 370.003 100.27 371.404 98.1941 372.233C96.1188 373.064 93.2667 374.235 91.8556 374.836C88.2187 376.386 78.6192 379.673 74.7384 380.696C64.2818 383.455 57.5043 381.155 46.2179 371.017C42.9066 368.045 41.9181 367.15 36.4037 362.139C34.9235 360.794 33.678 359.565 33.6367 359.411C33.5949 359.255 32.9352 358.648 32.1711 358.059C31.4069 357.47 29.093 355.11 27.029 352.817C18.5045 343.341 20.8798 339.197 38.1191 333.472C48.8879 329.893 117.308 312.046 122.579 311.439ZM282.423 278.548C282.916 278.663 284.348 279.643 285.604 280.727C289.082 283.726 293.082 288.322 305.141 303.175C306.026 304.266 307.287 305.805 307.941 306.596C309.823 308.865 311.551 311.034 314.579 314.929C316.127 316.919 318.523 319.885 319.904 321.521C321.287 323.157 322.434 324.558 322.455 324.635C322.52 324.877 338.424 344.915 339.054 345.548C339.383 345.88 339.711 346.368 339.783 346.635C339.854 346.902 340.229 347.347 340.616 347.625C341.003 347.902 341.769 348.8 342.317 349.619C342.866 350.437 344.315 352.308 345.538 353.776C346.761 355.244 348.683 357.693 349.809 359.217C351.918 362.075 353.011 363.464 355.12 365.968C355.795 366.769 356.406 367.646 356.479 367.916C356.55 368.184 356.881 368.676 357.213 369.006C357.905 369.695 361.609 374.529 362.719 376.194C363.129 376.809 363.716 377.639 364.024 378.039C364.331 378.439 365.504 380.199 366.63 381.95C367.755 383.7 369.002 385.638 369.4 386.256C369.798 386.872 370.749 389.308 371.514 391.666L372.904 395.954L371.907 397.865C370.332 400.883 363.764 402.934 352.494 403.925C350.249 404.123 347.082 404.48 345.453 404.722C318.401 408.729 313.965 405.188 299.365 367.931C298.724 366.292 297.68 363.807 297.048 362.407C295.801 359.651 293.489 354.106 292.519 351.55C291.968 350.098 287.948 340.253 284.037 330.778C281.226 323.964 278.291 312.233 278.018 306.712C277.889 304.091 277.72 301.174 277.643 300.229C277.235 295.197 277.515 292.023 279.036 284.493C280.197 278.741 280.555 278.113 282.423 278.548ZM274.36 301.79C275.319 302.408 275.357 302.542 275.618 306.391C276.25 315.731 275.049 321.539 269.497 335.99C268.442 338.736 266.422 344.299 265.436 347.174C265.025 348.371 263.978 351.155 263.11 353.362C262.242 355.57 261.087 358.545 260.546 359.975C260.006 361.404 258.453 365.439 257.096 368.941C255.738 372.444 254.349 376.175 254.007 377.232C253.664 378.288 253.058 379.851 252.656 380.703C252.255 381.555 250.937 384.841 249.729 388.006C246.682 395.998 241.754 405.863 239.527 408.438C236.312 412.152 231.747 414.283 228.012 413.814C225.999 413.561 219.179 411.497 217.514 410.637C216.797 410.267 216.025 410.014 215.799 410.074C215.575 410.134 214.591 409.707 213.614 409.123C212.638 408.54 211.642 408.111 211.403 408.168C211.018 408.261 207.807 407.081 203.641 405.315C183.734 396.879 182.618 392.587 196.224 376.788C199.516 372.966 203.008 369.169 203.306 369.089C203.492 369.039 205.253 367.185 207.219 364.968C209.183 362.752 210.885 360.913 211.001 360.882C211.117 360.851 212.178 359.809 213.361 358.566C214.544 357.323 215.677 356.181 215.879 356.026C216.08 355.872 219.738 352.168 224.006 347.793C233.71 337.85 242.775 328.634 245.95 325.485C247.286 324.158 248.765 322.659 249.234 322.153C249.703 321.648 250.646 320.732 251.328 320.118C252.01 319.505 253.345 318.212 254.295 317.244C255.245 316.277 256.264 315.28 256.559 315.027C256.853 314.773 257.873 313.779 258.824 312.816C267.461 304.07 272.429 300.545 274.36 301.79ZM139.139 360.108C145.933 359.774 149.052 362.401 155.012 373.47C155.805 374.947 156.792 376.757 157.203 377.492C157.613 378.227 158.355 379.609 158.847 380.562C159.341 381.516 160.345 383.42 161.077 384.793C166.56 395.064 166.533 397.148 160.803 405.806C157.428 410.906 154.538 414.234 152.26 415.644C151.638 416.031 148.961 417.856 146.311 419.701C143.661 421.547 140.475 423.684 139.229 424.449C137.983 425.216 135.326 426.985 133.325 428.383C121.198 436.846 112.646 439.51 106.061 436.879C105.79 436.77 104.379 436.544 102.923 436.375C95.3538 435.499 88.0339 432.263 86.3171 429.034C86.0195 428.474 85.008 426.838 84.0692 425.399C83.132 423.96 80.8896 420.018 79.0891 416.638C77.2875 413.259 75.3197 409.637 74.715 408.592C65.6682 392.926 67.5322 387.993 85.5328 379.958C90.2871 377.836 93.0745 376.646 95.9886 375.49C102.01 373.101 108.844 370.259 109.417 369.906C109.74 369.705 112.167 368.747 114.809 367.775C117.451 366.802 121.484 365.242 123.773 364.308C129.197 362.092 135.87 360.268 139.139 360.108ZM280.439 334.927C281.239 335.495 282.079 336.305 282.307 336.727C282.534 337.149 283.326 338.518 284.067 339.768C284.81 341.017 285.869 343.054 286.423 344.294C286.977 345.533 287.928 347.648 288.534 348.996C289.142 350.341 290.158 352.687 290.794 354.206C291.43 355.726 292.475 358.211 293.118 359.729C293.762 361.246 294.988 364.275 295.845 366.46C296.7 368.645 297.951 371.766 298.623 373.397C311.024 403.491 311.998 409.934 306.021 422.332C298.154 438.65 288.249 453.429 284.507 454.432C283.198 454.783 278.682 454.826 277.937 454.494C277.627 454.356 275.058 453.729 272.23 453.103C258.082 449.963 255.023 447.798 248.849 436.553C248.156 435.29 247.276 433.748 246.894 433.126C243.391 427.434 242.202 420.091 243.988 415.195C244.214 414.574 244.336 413.83 244.259 413.54C243.886 412.148 250.792 392.132 256.209 378.907C256.523 378.139 256.951 377.009 257.159 376.399C258.194 373.355 260.581 366.837 261.62 364.218C262.263 362.597 263.084 360.406 263.445 359.348C263.805 358.293 264.283 357.111 264.506 356.726C264.729 356.34 265.019 355.571 265.149 355.017C265.562 353.248 270.703 342.123 272.528 339.043C275.546 333.951 277.577 332.896 280.439 334.927ZM433.959 305.885C439.402 306.952 454.581 312.284 456.773 313.9C456.924 314.01 458.48 314.648 460.231 315.318C461.983 315.988 464.897 317.17 466.709 317.945C468.52 318.721 471.865 320.13 474.143 321.078C502.668 332.935 503.382 335.027 489.445 365.941C488.825 367.314 488.136 368.865 487.913 369.387C483.184 380.459 477.333 388.397 470.334 393.228C469.109 394.074 467.781 395.023 467.383 395.34C466.157 396.312 452.644 404.925 442.969 410.899C441.101 412.053 438.39 413.752 436.945 414.675C435.499 415.598 433.109 417.016 431.633 417.826C430.157 418.637 428.328 419.651 427.568 420.08C423.297 422.489 415.693 422.263 412.497 419.628C404.843 413.319 401.394 403.744 403.455 394.525C403.605 393.85 403.693 393.164 403.652 393.002C403.61 392.84 403.768 391.575 404.002 390.193C404.235 388.811 404.396 387.565 404.358 387.423C404.321 387.283 404.511 385.886 404.782 384.318C405.055 382.752 405.645 379.298 406.097 376.642C406.546 373.986 407.332 369.529 407.843 366.738C409.299 358.76 409.789 355.953 411.623 345.101C417.303 311.507 421.856 303.51 433.959 305.885ZM172.857 396.621C175.333 396.737 176.614 396.985 178.223 397.662C179.041 398.005 182.365 399.337 185.611 400.621C188.858 401.905 192.636 403.45 194.007 404.053C195.377 404.658 198.036 405.714 199.913 406.4C201.79 407.086 204.021 408.031 204.872 408.501C205.724 408.969 207.07 409.559 207.863 409.811C209.888 410.457 210.042 410.519 212.294 411.582C213.401 412.104 214.681 412.621 215.137 412.729C216.574 413.07 226.897 417.747 229.965 419.447C235.984 422.779 239.87 426.208 242.097 430.149C249.546 443.322 250.22 444.736 250.192 447.143C250.149 450.819 247.15 454.032 235.667 462.706C230.471 466.631 227.387 468.859 227.015 468.959C226.764 469.026 225.884 469.667 225.061 470.384C217.515 476.939 209.024 480.365 205.441 478.299C202.467 476.587 196.73 469.106 184.327 450.769C180.336 444.869 179.859 444.183 176.748 439.852C175.512 438.131 174.215 436.166 173.867 435.486C173.518 434.803 172.709 433.638 172.069 432.895C171.429 432.15 170.458 430.771 169.912 429.831C169.365 428.891 168.648 427.8 168.319 427.405C166.78 425.562 162.078 416.844 161.493 414.749C160.516 411.249 163.33 404.868 168.419 399.042C170.616 396.525 170.629 396.519 172.857 396.621ZM93.0129 437.218C99.013 437.507 112.609 440.722 114.582 442.32C120.414 447.042 127.932 471.099 126 478.849C125.105 482.436 120.992 492.848 119.38 495.605C119.023 496.215 117.481 499.569 116.74 501.347C113.795 508.41 108.409 518.383 105.827 521.557C103.288 524.676 96.9411 527.649 88.2965 529.763C78.9867 532.041 78.6277 531.425 69.5496 497.545C61.6966 468.237 61.6126 467.472 65.4708 460.361C66.6666 458.159 67.7887 456.319 67.9649 456.271C68.1411 456.224 70.3844 453.943 72.9503 451.203C75.5167 448.465 77.729 446.192 77.8666 446.155C78.0057 446.118 78.3483 445.733 78.6269 445.301C79.5853 443.821 85.1413 439.225 86.9139 438.446C89.7878 437.183 90.2675 437.087 93.0129 437.218ZM153.932 420.362C157.875 419.972 164.968 426.529 171.538 436.639C172.474 438.078 173.756 439.907 174.387 440.704C175.02 441.5 175.829 442.666 176.186 443.295C176.544 443.923 177.839 445.847 179.068 447.57C193.594 467.955 198.495 477.084 197.294 481.518C196.756 483.505 194.227 486.14 189.638 489.495C188.424 490.381 186.941 491.494 186.342 491.966C180.739 496.382 175.624 497.267 169.95 494.797C165.565 492.888 164.008 492.177 163.225 491.725C162.774 491.466 159.775 489.9 156.56 488.244C131.744 475.471 130.932 474.666 124.593 456.608C120.962 446.266 120.708 442.309 123.469 439.058C124.815 437.472 134.37 430.137 135.475 429.841C135.817 429.749 136.515 429.278 137.027 428.793C140.67 425.343 149.85 420.765 153.932 420.362ZM540.867 324.555C546.198 324.593 548.718 327.287 553.14 337.681C558.058 349.243 582.09 442.51 581.526 447.849C581.452 448.549 581.535 449.656 581.709 450.309C582.415 452.942 580.714 454.951 576.914 455.968C568.782 458.14 559.915 457.885 556.004 455.364C554.132 454.158 549.867 450.804 548.831 449.722C548.086 448.946 545.289 446.408 538.322 440.193C530.22 432.966 505.437 409.853 500.662 405.073C485.426 389.815 484.123 383.97 492.063 366.461C492.714 365.027 494.251 361.554 495.481 358.742C500.099 348.184 500.88 346.556 503.123 342.821C505.635 338.641 507.46 336.326 509.467 334.778C514.438 330.944 534.206 324.509 540.867 324.555ZM5.75725 471.991C7.2911 471.848 9.40236 471.603 10.4493 471.448C11.4963 471.293 14.0652 470.914 16.1587 470.603C18.2526 470.293 21.118 469.907 22.5243 469.745C29.1971 468.978 34.6658 468.366 36.6141 468.168C39.0126 467.925 45.2981 467.87 46.7031 468.081C47.207 468.156 48.3293 468.288 49.1974 468.375C53.8073 468.836 57.5868 472.338 60.9128 479.229C62.6002 482.726 71.3775 516.089 71.9509 521.185C72.829 528.981 71.3972 537.24 68.2974 542.266C67.6963 543.244 67.0546 544.349 66.8733 544.723C65.9898 546.539 64.0742 549.462 60.4415 554.533C58.2533 557.588 55.9116 560.992 55.2397 562.095C54.5661 563.198 53.5791 564.498 53.0437 564.986C52.5094 565.471 51.9214 566.275 51.7374 566.769C51.5538 567.265 50.7736 568.347 50.0031 569.176C49.2343 570.003 47.7283 571.92 46.6563 573.434C45.5859 574.948 44.5523 576.229 44.3607 576.28C44.169 576.332 43.5597 577.186 43.0058 578.18C42.4504 579.173 41.8365 580.029 41.6386 580.082C41.4408 580.135 41.1102 580.472 40.9025 580.829C40.6953 581.187 40.049 582.101 39.4657 582.861C38.8819 583.619 37.5478 585.361 36.4978 586.728C28.2643 597.456 23.0438 601.585 19.341 600.299C17.5274 599.67 15.2117 597.532 14.8409 596.148C14.7297 595.733 14.4251 595.264 14.1636 595.104C13.6747 594.807 13.516 594.431 10.5857 586.648C2.80989 566 -15.1179 495.76 -14.2136 489.483C-14.1411 488.981 -14.0786 487.681 -14.0736 486.593C-14.0653 484.658 -12.9454 481.356 -11.8197 479.943C-11.5086 479.552 -11.0436 478.87 -10.7854 478.424C-10.2238 477.453 -6.36557 474.751 -5.78754 474.924C-5.56208 474.992 -5.03038 474.8 -4.60525 474.501C-3.53443 473.743 2.40201 472.304 5.75725 471.991ZM330.615 409.59C337.085 408.543 342.144 407.829 344.475 407.636C345.658 407.538 348.827 407.178 351.517 406.836C356.461 406.207 357.358 406.101 367.714 404.925C384.208 403.052 386.13 403.053 392.78 404.933C398.353 406.509 399.786 407.621 404.212 413.811C409.366 421.018 408.494 424.492 397.377 441.066C396.007 443.111 393.978 446.222 392.87 447.979C389.673 453.051 385.086 460.15 383.719 462.135C383.03 463.138 382.239 464.316 381.96 464.752C374.079 477.109 368.052 482.142 359.522 483.487C354.247 484.32 342.67 484.745 336.662 484.327C336.045 484.284 333.664 484.257 331.369 484.267C329.074 484.276 325.798 484.24 324.091 484.188C322.384 484.134 320.395 484.095 319.672 484.102C308.98 484.192 304.293 481.424 297.598 471.073C289.151 458.012 289.105 458.422 301.41 436.557C305.318 429.617 310.032 421.775 311.204 420.27C311.448 419.957 312.165 419.04 312.796 418.233C316.108 413.995 322.467 410.912 330.615 409.59ZM136.791 481.816C138.19 482.098 142.682 483.917 145.246 485.243C172.639 499.395 175.295 501.37 174.854 507.262C174.356 513.949 172.87 516.205 163.429 524.616C161.086 526.704 158.618 528.936 157.944 529.578C157.269 530.22 156.234 531.154 155.642 531.654C155.05 532.153 154.019 533.104 153.35 533.766C147.429 539.627 141.439 540.935 134.649 537.846C132.161 536.716 130.611 535.95 124.624 532.897C123.586 532.368 122.401 531.796 121.989 531.627C118.891 530.352 112.871 525.476 112.448 523.899C111.867 521.728 113.063 515.891 114.908 511.895C115.733 510.11 116.811 507.646 117.711 505.49C118.347 503.969 118.82 502.937 119.896 500.734C120.235 500.04 120.962 498.464 121.512 497.23C127.329 484.176 130.855 480.621 136.791 481.816ZM264.131 454.059C276.07 456.399 283.817 459.051 287.153 461.944C289.37 463.867 297.911 475.921 298.43 477.86C298.539 478.265 298.803 478.693 299.015 478.813C300.924 479.883 302.619 488.529 301.554 491.755C301.336 492.415 301.206 493.139 301.266 493.363C301.325 493.585 301.056 494.899 300.668 496.282C300.278 497.665 299.786 499.433 299.574 500.214C299.363 500.995 298.727 503.339 298.162 505.422C297.597 507.505 296.713 510.576 296.2 512.246C295.687 513.917 295.286 515.354 295.309 515.439C295.352 515.599 291.768 525.83 291.072 527.53C290.373 529.242 287.573 533.111 286.264 534.18C280.607 538.788 256.842 547.638 251.496 547.125C248.614 546.849 244.586 544.404 244.115 542.645C243.994 542.195 243.447 541.321 242.9 540.704C242.354 540.088 241.241 538.134 240.426 536.361C239.612 534.59 238.57 532.451 238.112 531.608C237.314 530.143 234.92 524.521 233.834 521.562C233.108 519.585 230.93 514.786 230.629 514.505C230.49 514.375 229.927 513.029 229.377 511.516C228.826 510.003 227.963 507.908 227.459 506.862C226.954 505.817 226.312 504.108 226.034 503.068C225.755 502.027 225.167 500.582 224.729 499.856C221.145 493.935 219.812 482.515 222.221 478.372C224.079 475.178 233.955 466.388 238.597 463.797C239.017 463.562 239.875 462.955 240.502 462.449C241.128 461.943 241.925 461.453 242.273 461.36C242.62 461.267 242.966 460.986 243.041 460.736C243.302 459.87 250.472 455.536 253.459 454.438C257.549 452.937 258.272 452.912 264.131 454.059ZM481.282 396.605C486.732 397.984 493.881 402.827 503.398 411.59C505.645 413.66 509.063 416.763 510.993 418.487C512.922 420.21 515.523 422.616 516.774 423.832C519.231 426.225 522.204 428.952 524.771 431.167C525.659 431.934 526.416 432.675 526.453 432.814C526.49 432.952 528.099 434.523 530.028 436.307C531.957 438.088 533.558 439.639 533.588 439.75C533.618 439.862 535.076 441.579 536.828 443.567C544.91 452.739 542.887 455.732 526.957 458.165C521.754 458.958 518.889 459.291 506.616 460.524C504.378 460.748 501.203 461.086 499.561 461.277C497.919 461.465 495.702 461.681 494.633 461.755C493.565 461.83 490.372 462.1 487.538 462.355C467.979 464.118 460.787 462.313 452.44 453.549C451.707 452.78 450.457 451.534 449.663 450.781C448.866 450.028 447.931 449.049 447.581 448.602C446.739 447.529 444.779 445.286 443.924 444.419C442.759 443.236 436.287 435.417 434.109 432.564C430.843 428.284 431.044 424.657 434.775 420.525C438.059 416.886 456.869 404.644 468.474 398.59C472.086 396.706 478.035 395.783 481.282 396.605ZM418.309 424.284C421.736 425.022 429.615 430.809 430.207 433.02C430.266 433.24 430.904 433.889 431.625 434.465C432.344 435.041 433.354 436.09 433.868 436.797C434.381 437.505 438.271 441.993 442.509 446.772C454.114 459.857 457.691 465.188 458.682 470.884C459.208 473.902 459.388 483.516 458.978 486.692C458.93 487.067 458.608 491.598 458.262 496.76C457.382 509.899 457.305 510.83 456.914 513.028C456.723 514.103 456.616 515.165 456.677 515.39C456.828 515.955 455.438 520.53 454.616 522.172C451.986 527.424 444.511 526.652 425.815 519.195C423.377 518.222 420.41 517.04 419.219 516.565C418.027 516.092 416.238 515.32 415.241 514.849C414.245 514.38 411.124 513.143 408.306 512.099C403.76 510.418 396.155 507.243 387.336 503.35C379.108 499.717 375.72 496.269 373.953 489.723C372.811 485.499 373.781 483.218 383.122 468.172C385.775 463.897 388.329 459.906 390.579 456.518C391.943 454.462 393.899 451.469 394.924 449.867C395.951 448.263 397.754 445.508 398.935 443.743C400.113 441.979 401.458 439.94 401.922 439.212C403.515 436.713 404.927 434.663 406.544 432.505C407.435 431.315 408.293 430.085 408.45 429.77C410.515 425.646 414.458 423.452 418.309 424.284ZM209.391 481.604C213.212 481.637 215.307 484.984 223.026 503.388C224.347 506.535 225.909 510.165 226.498 511.456C227.088 512.746 228.26 515.592 229.103 517.781C229.946 519.969 231.34 523.348 232.203 525.29C235.418 532.528 236.194 534.432 237.676 538.748C242.166 551.813 242.023 553.3 235.554 560.875C228.872 568.696 225.171 569.487 220.355 564.124C219.613 563.299 218.849 562.567 218.655 562.499C218.461 562.43 217.802 561.818 217.189 561.137C216.575 560.456 215.612 559.552 215.05 559.127C214.485 558.703 213.954 558.091 213.867 557.769C213.781 557.446 213.087 556.701 212.326 556.115C211.563 555.527 210.864 554.766 210.773 554.424C210.681 554.081 210.111 553.432 209.506 552.979C208.901 552.527 208.355 551.968 208.292 551.733C208.229 551.499 207.27 550.405 206.16 549.301C205.049 548.198 203.691 546.626 203.144 545.806C202.596 544.987 201.575 543.859 200.875 543.3C200.177 542.74 199.572 542.165 199.534 542.021C199.391 541.489 190.582 531.188 189.555 530.354C189.221 530.081 188.253 528.956 187.404 527.858C186.556 526.757 184.744 524.554 183.38 522.961C182.015 521.369 180.803 519.707 180.686 519.271C180.569 518.834 180.274 518.343 180.028 518.179C177.237 516.314 176.498 510.464 178.311 504.6C179.379 501.148 180.43 499.872 185.131 496.33C187.427 494.6 190.375 492.37 191.68 491.372C192.985 490.376 195.542 488.474 197.363 487.146C199.184 485.818 201.159 484.331 201.754 483.844C203.057 482.776 207.12 481.584 209.391 481.604ZM103.02 528.917C106.581 528.537 113.453 529.935 114.338 531.221C114.47 531.412 114.793 531.511 115.057 531.44C115.322 531.369 116.828 532.002 118.407 532.848C119.983 533.692 123.073 535.284 125.272 536.385C135.231 541.37 140.522 544.976 141.113 547.179C141.224 547.592 141.608 548.101 141.965 548.307C144.09 549.533 148.851 574.733 147.699 578.659C147.469 579.445 147.248 580.394 147.207 580.767C147.087 581.852 143.63 585.874 140.706 588.329C134.848 593.248 133.078 594.647 132.52 594.796C132.202 594.881 130.947 595.874 129.735 596.999C128.52 598.125 126.602 599.653 125.471 600.396C124.34 601.139 123.082 601.985 122.677 602.279C117.792 605.806 113.739 607.631 105.609 609.966C104.673 610.235 92.7877 612.112 88.9451 612.597C80.1835 613.706 79.1971 613.815 70.8995 614.603C68.717 614.811 65.6416 615.149 64.0669 615.356C44.3336 617.938 31.6156 617.97 29.242 615.443C26.075 612.07 30.2662 602.825 43.8889 583.132C44.6722 582 45.9324 580.056 46.689 578.812C47.446 577.569 48.8748 575.512 49.865 574.243C50.8553 572.974 52.1139 571.315 52.6631 570.558C53.9459 568.786 54.5615 567.961 56.3508 565.618C57.1552 564.564 57.8803 563.579 57.9609 563.428C58.0419 563.279 59.142 561.845 60.4059 560.243C63.2221 556.669 62.9033 557.087 65.539 553.556C68.2727 549.896 74.6773 542.26 75.1101 542.144C75.2878 542.096 75.5808 541.737 75.7618 541.343C77.1605 538.309 84.0332 534.274 92.3032 531.633C95.4163 530.639 98.0279 529.714 98.1072 529.577C98.1865 529.44 98.7465 529.298 99.3525 529.26C99.9585 529.222 101.609 529.067 103.02 528.917ZM174.309 522.805C177.72 523.264 181.295 526.048 188.56 533.911C190.35 535.846 192.261 537.803 192.807 538.26C193.355 538.717 194.483 539.996 195.313 541.101C196.144 542.205 197.049 543.347 197.327 543.634C197.739 544.061 201.693 548.529 203.608 550.729C204.217 551.429 205.565 552.887 206.209 553.543C206.49 553.83 207.038 554.474 207.426 554.973C207.813 555.473 208.998 556.834 210.06 557.998C212.843 561.051 212.75 560.945 215.02 563.692C223.212 573.608 224.022 579.023 218.608 587.684C217.054 590.169 212.289 591.856 209.759 590.817C209.482 590.703 208.155 590.561 206.808 590.502C205.462 590.442 202.695 590.087 200.662 589.714C198.627 589.342 195.404 588.767 193.502 588.438C186.014 587.14 182.63 586.448 182.414 586.17C182.291 586.008 182.01 585.926 181.788 585.985C181.325 586.11 176.845 585.461 174.765 584.967C173.99 584.784 171.892 584.344 170.105 583.991C168.317 583.638 166.534 583.258 166.141 583.148C165.749 583.037 164.361 582.656 163.057 582.301C154.044 579.851 151.252 575.59 148.58 560.207C148.2 558.015 147.633 554.826 147.324 553.12C146.795 550.212 146.846 548.876 147.595 545.986C147.954 544.598 150.695 540.327 151.333 540.156C151.577 540.09 151.944 539.747 152.149 539.391C153.141 537.678 165.59 526.534 168.859 524.434C171.448 522.77 172.252 522.53 174.309 522.805ZM319.052 487.534C322.303 487.246 329.138 487.044 332.795 487.128C333.525 487.144 335.997 487.141 338.29 487.122C340.583 487.103 345.249 487.162 348.659 487.257C352.07 487.351 355.348 487.398 355.944 487.364C356.539 487.329 357.437 487.359 357.94 487.431C358.443 487.502 360.161 487.632 361.755 487.719C367.43 488.031 370.068 489.569 372.452 493.956C375.022 498.685 375.939 506.768 374.6 512.873C374.394 513.806 374.287 514.792 374.36 515.066C374.434 515.339 374.383 516.214 374.25 517.01C374.116 517.807 373.892 520.026 373.751 521.941C373.61 523.856 373.362 525.565 373.2 525.735C373.038 525.908 372.979 526.324 373.069 526.662C373.159 526.998 372.995 529.055 372.704 531.233C372.41 533.41 372.08 536.006 371.971 537.001C371.86 537.996 371.515 540.314 371.205 542.154C370.896 543.993 370.677 545.631 370.722 545.794C370.818 546.152 369.991 552.433 369.628 554.099C369.487 554.747 369.283 556.58 369.175 558.171C369.068 559.763 368.89 561.287 368.779 561.559C368.669 561.829 368.156 565.425 367.638 569.546C367.121 573.668 366.608 577.262 366.498 577.533C366.389 577.803 366.088 579.662 365.832 581.662C363.82 597.374 360.173 605.609 355.807 604.302C354.335 603.861 348.36 600.195 348.212 599.643C348.177 599.513 346.82 598.139 345.195 596.586C343.569 595.034 342.178 593.533 342.103 593.252C342.027 592.97 341.81 592.716 341.621 592.685C341.431 592.655 340.654 591.909 339.894 591.026C334.563 584.838 325.76 574.63 323.442 571.952C319.572 567.476 314.111 560.996 314.065 560.825C314.044 560.746 312.7 559.104 311.076 557.175C309.455 555.247 307.744 553.178 307.275 552.579C304.838 549.457 303.244 547.235 301.862 545.032C301.018 543.689 299.931 542.105 299.446 541.511C295.948 537.235 294.641 524.97 297.105 519.532C297.291 519.12 297.743 517.517 298.107 515.971C303.292 493.993 307.282 488.574 319.052 487.534ZM482.61 466.117C484.565 465.743 486.74 465.369 487.443 465.286C488.146 465.202 489.965 464.971 491.484 464.774C493.003 464.575 494.738 464.405 495.341 464.395C495.942 464.385 497.863 464.169 499.609 463.916C501.356 463.665 505.198 463.234 508.146 462.96C515.621 462.265 518.26 462.006 521.215 461.676C522.624 461.518 524.933 461.277 526.347 461.138C530.425 460.738 536.868 460.042 538.954 459.776C540.007 459.642 541.651 459.501 542.607 459.461C543.565 459.423 545.994 459.258 548.006 459.096C559.682 458.156 561.27 458.992 557.689 464.193C556.773 465.525 555.514 467.354 554.891 468.257C553.798 469.846 546.029 479.646 539.914 487.15C538.276 489.162 534.939 493.271 532.501 496.282C525.551 504.863 522.57 508.511 520.11 511.443C518.857 512.936 517.333 514.786 516.724 515.553C509.102 525.146 497.764 538.75 492.151 545.036C490.828 546.517 489.596 547.959 489.412 548.238C488.606 549.463 482.025 555.955 479.937 557.588C473.476 562.642 471.232 561.153 465.186 547.798C460.37 537.154 459.179 532.426 459.282 524.36C459.375 517.207 459.411 516.334 459.821 511.487C460.04 508.893 460.444 503.748 460.719 500.052C461.464 490.063 461.555 489.025 461.868 486.91C462.028 485.845 462.12 484.832 462.074 484.66C461.858 483.843 463.379 478.46 464.494 476.102C466.474 471.912 472.47 467.802 477.786 466.991C478.483 466.883 480.654 466.49 482.61 466.117ZM576.101 459.433C585.502 458.366 586.684 460.917 599.826 510.624C610.327 550.34 611.295 556.457 608.4 564.762C604.426 576.15 597.003 579.415 540.957 594.433C475.996 611.839 476.493 611.906 476.008 585.719C475.938 581.813 476.442 576.866 477.204 574.031C478.239 570.168 484.049 560.392 489.336 553.618C490.647 551.938 491.875 550.318 492.064 550.018C492.532 549.277 497.767 542.797 500.275 539.855C501.388 538.548 502.367 537.292 502.452 537.06C502.591 536.683 509.904 527.72 514.732 522.012C515.787 520.764 517.864 518.231 519.348 516.387C523.12 511.688 525.122 509.225 525.861 508.372C526.209 507.97 528.527 505.176 531.01 502.164C563.599 462.634 565.737 460.609 576.101 459.433ZM390.561 510.136C393.995 510.206 405.174 513.53 412.349 516.613C413.457 517.088 416.122 518.137 418.273 518.943C420.423 519.748 424.076 521.194 426.388 522.155C428.701 523.116 432.061 524.503 433.853 525.236C453.424 533.242 457.032 536.229 463.511 549.798C471.761 567.075 473.527 574.073 473.879 590.898C473.918 592.819 473.993 595.744 474.044 597.399C474.479 611.718 471.262 613.438 417.691 627.551C369.733 640.186 370.363 640.213 366.392 625.406C364.672 618.991 364.573 614.776 365.909 604.906C366.247 602.401 366.498 599.864 366.466 599.269C366.434 598.674 366.487 597.969 366.583 597.702C366.68 597.434 366.844 596.204 366.949 594.969C367.055 593.733 367.255 592.506 367.394 592.239C367.531 591.972 367.582 591.52 367.505 591.233C367.429 590.946 367.547 589.621 367.767 588.289C367.988 586.955 368.774 581.257 369.512 575.629C370.251 569.998 371.153 563.237 371.519 560.606C371.883 557.973 372.268 555.006 372.373 554.012C372.774 550.217 374.062 541.231 374.336 540.318C374.493 539.793 374.632 538.868 374.641 538.261C374.678 535.994 377.308 523.662 378.457 520.368C381.18 512.554 384.195 510.004 390.561 510.136ZM285.57 541.526C290.885 541.99 298.355 547.432 306.905 557.069C308.462 558.825 309.875 560.322 310.044 560.397C310.214 560.473 310.617 560.958 310.94 561.475C311.264 561.992 312.005 562.81 312.587 563.296C313.168 563.781 313.691 564.348 313.746 564.555C313.802 564.763 315.519 566.842 317.563 569.171C319.605 571.502 321.904 574.168 322.667 575.095C323.431 576.023 324.271 576.846 324.534 576.925C324.799 577.004 325.088 577.347 325.179 577.688C325.27 578.027 327.461 580.738 330.048 583.709C332.633 586.681 335.919 590.479 337.35 592.146C338.78 593.815 340.487 595.729 341.145 596.398C341.802 597.065 342.85 598.266 343.472 599.065C344.095 599.864 346.105 602.289 347.94 604.453C359.706 618.327 363.357 623.911 365.645 631.532C368.408 640.73 366.601 641.527 308.148 656.9C265.553 668.103 261.423 668.962 253.375 668.29C240.872 667.245 238.738 663.515 227.946 623.875C219.595 593.206 219.622 593.434 223.287 583.654C224.113 581.451 224.945 579.183 225.137 578.609C225.759 576.755 228.794 572.046 230.42 570.415C231.289 569.542 233.166 567.52 234.591 565.923C242.324 557.26 246.553 553.882 252.438 551.667C256.714 550.06 266.387 546.342 270.605 544.686C276.123 542.519 282.219 541.232 285.57 541.526ZM156.931 585.699C159.785 585.701 163.437 585.945 165.885 586.293C167.143 586.472 168.581 586.672 169.083 586.739C171.57 587.066 178.092 588.216 189.159 590.276C202.808 592.817 210.86 595.657 213.779 598.961C216.621 602.182 217.482 603.527 219.99 608.67C222.539 613.9 234.475 655.911 235.569 663.503C236.553 670.35 235.328 674.437 231.593 676.754C229.26 678.201 209.542 683.462 206.228 683.521C197.999 683.669 189.43 678.396 172.267 662.626C171.946 662.332 170.233 660.828 168.46 659.285C165.213 656.461 158.239 650.238 151.302 643.974C149.241 642.112 146.853 639.987 145.996 639.25C145.139 638.514 143.939 637.354 143.326 636.673C142.714 635.992 142.067 635.375 141.888 635.302C141.244 635.038 134.933 628.958 132.171 625.94C130.616 624.24 128.867 622.494 128.285 622.06C127.328 621.345 125.871 619.404 123.455 615.631C120.55 611.091 121.954 607.265 128.505 601.872C130.19 600.486 131.712 599.155 131.889 598.914C132.067 598.675 133.535 597.605 135.149 596.538C136.765 595.47 138.75 594.017 139.56 593.308C141.585 591.542 143.839 590.022 144.845 589.746C145.307 589.617 145.837 589.25 146.023 588.929C146.807 587.573 153.151 585.694 156.931 585.699ZM43.9825 621.215C46.641 620.756 49.5956 620.227 50.5477 620.04C51.5018 619.854 52.5454 619.779 52.8699 619.877C53.1941 619.974 55.6697 619.723 58.3721 619.316C61.073 618.91 63.767 618.534 64.3572 618.48C68.545 618.095 74.244 617.514 75.4863 617.346C76.3035 617.237 78.1314 617.041 79.5479 616.911C80.9644 616.781 83.1838 616.575 84.4808 616.451C85.7778 616.327 88.21 616.173 89.886 616.109C91.5621 616.045 93.6037 615.912 94.4238 615.813C95.2438 615.714 96.3263 615.692 96.8293 615.763C97.3324 615.835 99.3549 616.001 101.325 616.132C109.252 616.655 119.813 620.964 125.513 626.001C126.392 626.777 127.243 627.376 127.407 627.332C127.569 627.289 128.813 628.189 130.17 629.335C131.527 630.48 132.782 631.476 132.959 631.55C133.261 631.677 135.845 633.884 139.562 637.192C142.203 639.544 143.74 640.898 149.791 646.206C188.954 680.561 190.305 685.057 164.387 694.761C158.422 696.994 96.428 713.79 86.0842 715.975C69.7921 719.418 60.255 720.075 56.1479 718.04C55.6361 717.787 54.3637 717.403 53.3184 717.187C52.2747 716.971 51.1272 716.484 50.7674 716.106C50.4081 715.729 49.4057 714.721 48.539 713.867C46.8414 712.194 41.8077 704.067 41.9045 703.154C41.9372 702.85 41.4011 701.189 40.7149 699.463C39.6138 696.695 35.8176 684.673 35.1662 681.896C35.0338 681.327 33.159 674.028 30.9988 665.675C28.8396 657.32 26.7907 648.585 26.4468 646.263C25.3046 638.575 25.0477 634.036 25.7278 633.588C25.9447 633.446 26.0216 632.954 25.8988 632.495C25.6297 631.491 27.5891 628.088 29.2466 626.682C32.6738 623.774 35.7253 622.642 43.9825 621.215Z" fill="black"/>
<path d="M510.344 180.719L533.493 174.386L540.09 198.5" stroke="black"/>
</g>
<defs>
<clipPath id="clip0_135_117">
<rect width="1660" height="457" fill="white"/>
</clipPath>
</defs>
</svg>
